<mxfile host="65bd71144e">
    <diagram id="zfC5Em5YhH6-KqeHaQ6I" name="Page-1">
        <mxGraphModel dx="1448" dy="740" grid="1" gridSize="10" guides="1" tooltips="1" connect="1" arrows="1" fold="1" page="1" pageScale="1" pageWidth="850" pageHeight="1100" math="0" shadow="0">
            <root>
                <mxCell id="0"/>
                <mxCell id="1" parent="0"/>
                <mxCell id="2" value="" style="group" vertex="1" connectable="0" parent="1">
                    <mxGeometry x="40" y="40" width="270" height="200" as="geometry"/>
                </mxCell>
                <mxCell id="3" value="" style="rounded=1;whiteSpace=wrap;html=1;sketch=1;curveFitting=1;jiggle=2;fillColor=none;" vertex="1" parent="2">
                    <mxGeometry width="270" height="200" as="geometry"/>
                </mxCell>
                <mxCell id="5" value="" style="shape=image;verticalLabelPosition=bottom;labelBackgroundColor=default;verticalAlign=top;aspect=fixed;imageAspect=0;image=data:image/png,iVBORw0KGgoAAAANSUhEUgAAAygAAAGZCAYAAABi/RUIAAAAAXNSR0IArs4c6QAAAARnQU1BAACxjwv8YQUAAAAJcEhZcwAADsMAAA7DAcdvqGQAADB5SURBVHhe7d0HeBXFwsbx96RA6L0oKgIiKCAgSJESUkBFQbBc1KsXUa6ComID9QNUUFHkoiIXREGRolzlXkERlZYQukgRQQGlIz3SIe2c/c5uNhSlnBTInOT/e548mZldYpwke867szPjsfwEAAAAAAYIcT8DAAAAQK4joAAAAAAwBgEFAAAAgDEIKAAAAACMQUABAAAAYAwCCgAAAABjEFAAAAAAGIOAAgAAAMAYBBQAAAAAxiCgAAAAADAGAQUAAACAMQgoAAAAAIxBQAEAAABgDAIKAAAAAGMQUAAAAAAYI1MB5eeff9aAAQN05MgRtwUAAAAAco7H8nPLZ3X06FGVKlVKKSkpqlu3rlasWOEeAQAAAICcEfAIygcffOCEE9uPP/6oDRs2OGUAAAAAyCkBBZS0tDS99dZbbi3dG2+84ZYAAAAAIGcEFFA+//xzbd682a2l++ijj7Rt2za3BgAAAADZd86AYk9Ref31193aCampqXrzzTfdGgAAAABk3zknyX/zzTdq27atW0sXEhIin8+niIgIbdq0SRUqVHCPAAAAAEDWnXME5XSjJ5UqVXI+JyUlaciQIU4ZAAAAALLrrAFlwYIFSkhIcMrVqlVzPtsuv/xyhYeHO+Xhw4crMTHRKQMAAABAdpw1oJw8evLUU0+5JTmPdt1///1O+fDhwxo6dKhTBgAAAIDsOOMclFWrVqlOnTpO+aKLLnJ2kbc3arS1bt1a7733nq688kp5vV6VLFnSmYtSokQJ5zgAAAAAZMUZR1AGDRrkltJHTwoWLOjW0lWtWlX33HOPU96/f7/zqBcAAAAAZMdpR1DsPU/sOScZoyN23Z5zUrhwYee4PYIyffp0/fLLL6pVq5azFHHZsmWdUZQiRYo45wAAAABAZp12BOVf//qXE05sjz76qIoXL+6U/+yqq67SHXfc4ZT37t2r999/3ykDAAAAQFb8ZQRlz549qly5so4dO+ZMhrdHT8qXL+/U/zyCYvvxxx9Vr149p2zPVdmwYYPz7wAAAAAgs/4ygvLuu+86YcT24IMPOuHkbOrWrat27do55R07duijjz5yygAAAACQWaeMoBw6dMgZPdm3b59CQ0P166+/qkqVKs6xM42g2BYvXqwmTZo45csuu0y//fbb8X1SAAAAACBQp4ygfPDBB044sd11113Hw8m5NG7c2Aktti1btmj8+PFOGQAAAAAy43hASU5OdibHZ+jdu7dbCkzfvn3dkvTaa68dn2QPAAAAAIE6HlAmTJig7du3O+Wbb775+CaNgWrRooVatmzplO1HvD777DOnDAAAAACBcgKKPdpx8saMzz33nFvKnD59+rgl6dVXX5XP53NrAAAAAHBuTkCZMmWK1q5d6zQ0a9ZMzZs3d8qZFRsbq0aNGjnl1atXO18XAAAAAALlBJTJkyc7FVtWR09sHo/nlFGUadOmuSUAAAAAODcnoLRp08ap3HrrrWrbtq1TzqpbbrlFN910k1POmJMCAAAAAIE4vg+Kvc9JgQIFnP1PTuds+6D8mT2nxV4VLON8AMHFXuhi+PDhzh5H9tLjERERqlChgm677Tbdc889KlKkiHsmAABAzjplo8azyUxAARCcVq5c6TymOXXqVJ3p0lCiRAk98MAD6tevn0qWLOm2AgAA5IzjywwDyN/s0RJ7gYyvvvrqjOHEduDAAb311luKiopSYmKi2woAAJAzCCgAtHTpUt1www06dOiQ23JuK1ascFbuI6QAAICcREAB8rmjR4+qXbt2zshIZtkhpXPnzm4NAAAg+wgoQD43ceJE7dixw61l3tdff601a9a4NQAAgOwhoAD5nL1aV3aNGDHCLQEAAGQPAQXIx3766Sdn/kl2ffzxx0pLS3NrAAAAWUdAAfKxtWvXuqXsseev7Nq1y60BAABkHQEFyMeyMjH+THLyawEAgPyLgALkYxmbr+YEdpcHAAA5gYAC5GOXXnqpW8qesLAwlS9f3q0BAABkHQEFyMeaNm2qqlWrurWsu/3221WoUCG3BgAAkHUEFCAfCw0N1eOPP+7Wsu6JJ55wSwAAANlDQAHyuS5duqh06dJuLfPsUZgmTZq4NQAAgOwhoAD5XPHixfXFF1+oaNGibkvgKleurE8++UQej8dtAQAAyB4CCgC1bNlS06dPd8JKoOxwEh8fr8svv9xtAQAAyD4CCgCH/ajW/Pnzdeuttyok5MyXhvDwcN13332aN28e4QQAAOQ4AgqA42rXrq3Jkydr06ZN6tu3r6688kr3iJww8tJLL2nLli0aO3asLrnkEvcIAABAziGgAPgLe3+U/v3765VXXnFbpCeffFIvvviiKlas6LYAAADkPAIKAAAAAGMQUAAAAAAYg4ACAAAAwBgEFAAAAADGIKAAAAAAMAYBBQAAAIAxCCgAAAAAjEFAAQAAAGAMAgoAAAAAYxBQAAAAABiDgAIAAADAGAQUAAAAAMYgoAAAAAAwBgEFAAAAgDEIKAAAAACMQUABAAAAYAwCCgAAAABjEFAAAAAAGIOAAgAAAMAYBBQAAAAAxiCgAAAAADAGAQUAAACAMQgoAAAAAIxBQAEAAABgDAIKAAAAAGMQUAAAAAAYg4ACAAAAwBgEFAAAAADGIKAAAAAAMAYBBQAAAIAxCCgAAAAAjEFAAQAAAGAMAgoAAAAAYxBQAAAAABiDgAIAAADAGAQUAAAAAMYgoAAAAAAwBgEFAAAAgDEIKAAAAACMQUABAAAAYAwCCgAAAABjEFAAAAAAGIOAAgAAAMAYBBQAAAAAxiCgAAAAADAGAQUAAACAMQgoAAAAAIxBQAEAAABgDAIKAAAAAGMQUAAAAAAYg4ACAAAAwBgEFAAAAADGIKAAAAAAMAYBBQAAAIAxCCgAAAAAjEFAAQAAAGAMAgoAAAAAYxBQAAB51tatW/XFF19o9OjRGjNmjKZOnap9+/a5RwEAJiKgAADylLS0NE2ePFlt27ZV5cqVddttt6lr167q0qWL2rVrp4svvlj/+Mc/NG/ePFmW5f4rAIApCCgAgDxj27ZtatCggTp27KhvvvnmtAEkKSlJ48aNU4sWLdShQwcdPXrUPQIAMAEBBQCQJ6xbt07NmjXTypUr3ZZz+/LLL9WmTRse+wIAgxBQAABBb9OmTWrevLm2bNnitgRu/vz5io6O1rFjx9wWAEBuIqAYYMeOHW4JAJAVL7/8svbs2ePWMm/FihUaNWqUWwOQm3hfBAKKAerXr68jR464NQBAZtgrdY0fP96tZd3gwYOVmprq1gDkltq1a/O3mM8RUAxg/xGykgwAZM3QoUOdlbuyy3487PPPP3drAHJLSkoK74vyOQIKACCo2XNIcsqCBQvcEgAgtxBQAABBLTEx0S1l3969e90SACC3EFAAAEGtYMGCbin7IiIi3BIAILcQUAAAQa1SpUpuKfvsXeYBALmLgAIACGp33323W8q+Tp06uSUAQG4hoAAAgpodUC699FK3lnVt27ZV3bp13RoAILcQUAAAQS08PFy9evVya1n3/PPPuyUAQG4ioAAAgl63bt2y9ajXwIED1bx5c7cGAMhNBBQAQNALCwtzdpPv0aOH2xIYj8ejkSNH6rnnnnNbAAC5jYACAMgTQkJCnF3l7Y9AVvaqXbu2vvzySz300ENuCwDABAQUAECeYY+IPPbYY9q0aZPz2FeG0NBQZ48TO7h07tzZ2TF+5cqVuuWWW9wzAACmIKAAAPIc+5GvOnXquDVp3LhxOnbsmLZt26YxY8aoadOmTpgBAJiHgAIAAADAGAQUAAAAAMYgoAAAAOSQpKQkffXVVxoxYoQGDx6s999/XzNnzpTX63XPAHAuBBQAAIBsWrdunZ5++mlnIYb27dvrkUce0bPPPquHH35YrVu3VpUqVTRgwABt377d/RcAzoSAAgAAkA1vvvmmatasqSFDhuiPP/5wW0+1detW9evXT9WqVdOkSZPcVgCnQ0ABAADIAsuy1KdPH/Xq1cspB8J+BKxTp076+OOP3RYAf0ZAAQAAyIKXXnpJr776qlsLnM/n0/33368JEya4LQBORkABAADIJHsuycCBA91a1thzVFJSUtwagAwEFAAAgEx69913lZqa6tayZseOHfr000/dGoAMBBQAAIBMOHLkiN577z23lj32xHoApyKgAAAAZMKyZcu0f/9+t5Y9K1eu1N69e90aABsBBQAAIBNyOlDs2bPHLQGwEVAAAAAywV6FKyfl9NcDgh0BBQAAIBPKlCnjlnJGTn89INgRUJDrDh48qHXr1mn58uXasGGDjh075h4BAMA89erVU6FChdxa9lStWlUVKlRwawBsBBTkCq/Xq6lTp6pdu3YqVaqUatSooWuvvVbVqlVz7iR16dJFixYtCnhnXgAALpSSJUs6Gy3mhJ49e8rj8bg1ADYCCi64OXPmOEHEDid2SPnzs7f2CMqYMWPUtGlTNWrUSOvXr3ePAABghieffDLbwcIOOvYNOQCnIqDggpo2bZpuvPFGbd682W05ux9++EEtWrTQzz//7LYAAJD7qlevrq5du7q1rOnbt6+KFi3q1gBkIKDggpk8ebI6dOigpKQktyUw9k67LVu2dNaKBwDAFMOHD9d9993n1jJnwIABzigMgL8ioOCCOHz4sDOMnZqa6rZkTmJionOnijkpAABThIWFOY8kP/roo25LYN5++2316dOHuSfAGRBQcEF8+OGH2d51d8mSJZo3b55bAwAg94WEhOjdd9/VzJkzdfvttys0NNQ9cqrChQvrwQcf1NKlS/XEE0+4rQBOh4CC885escu+W5QThgwZ4pYAADCDPRISExOjSZMmaevWrc4iLxkeeughjRo1Stu3b3c+2ytWAjg7AgrOO3ui+8aNG91a9nz55Zc6evSoWwMAwCwXXXSRatWq5dbSV/uyR05KlCjhtgA4FwIKzjv7rlFOsZck3r17t1sDAABAXkNAwXmX0zvDM4ICAACQdxFQcN7ZO8XnpNKlS7slAAAA5DUEFJx311xzjbPKSU6wn+0tX768WwMAAEBeQ0DBeVepUiXddtttbi17evTokWNhBwAAAObhnR4uiGeeecYtZV2RIkXUrVs3twYAAIC8iICCC6Jx48a6+eab3VrW9OzZk/knAAAAeRwBBRfMp59+qpYtW7q1zOnatav69+/v1gAAAJBXEVBwwRQrVkzTpk1TdHS02xKYRx55RCNHjmTuCQAAQD7AOz5cUPY8EjukDBo0SJdddpnbenp169bV2LFjNWzYMMIJAABAPsG7PlxwBQsW1LPPPqv169erePHix9tq1qypJk2a6L777lNCQoKWL1/ulD0ej3MOAAAA8j4CCnJNWFiYIiIinLI9mvLLL79o4cKFzqhJixYtCCYAAAD5EAEFAAAAgDEIKAAAAACMQUABAAAAYAwCCgAAAABjEFAAAAAAGIOAAgAAAMAYBBQAAAAAxiCgAAAAADAGAQUAAACAMQgoAAAAAIxBQAEAAABgDAIKAAAAAGMQUAAAOA8sy9LatWuVkJCgGTNm6IcfftChQ4fcowCAMyGgAACQgw4fPqwRI0aoVq1aqlmzpiIjI9WmTRtdd911qlixorp166bVq1e7ZwMA/oyAAgBADhkzZowuueQSPfLII/rll1/c1hOOHj2qkSNHqnbt2urQoYMOHjzoHgEAZCCgAACQA4YNG6YuXbrowIEDbsvZTZkyxRlZ2b9/v9sCALARUAAAyKa3335bjz32mFsL3OLFixUTE0NIAYCTEFAAAMiGNWvW6KmnnnJrmbds2TL169fPrQEACCgAAGTDkCFDnBW7smP06NFKTEx0awCQvxFQAADIol27dmns2LFuLevsyfPvvfeeWwOA/I2AAgBAFk2ePFnJycluLXs++eQTtwQA+RsBBQCALPr999/dUvZt377dLQFA/kZAAQAgi5KSktxS9h07dswtAUD+RkABACCLSpUq5Zayr3Tp0m4JAPI3AgoAAFl0zTXXuKXsy8mvBQDBjIACAEAW3Xjjjapatapby54ePXq4JQDI3wgoAABkUWhoqHr27OnWsq5GjRpq27atWwOA/I2AAgBANnTp0kWVKlVya1nTp08fhYTwkgwANq6GAABkQ9GiRTVz5swsh5SBAwfq3nvvdWsAAAIKAADZVLNmTc2dOzfT81GGDRum5557zq0BAGwEFAAAckCVKlW0ePFi9e7dW+XKlXNb/8rj8ejmm2/WrFmz9Oijj7qtAIAMBBQAAHJI2bJl9frrr2vbtm2aOHGiSpYs6bTb80s6dOigF198URs3btTUqVMVHR3tHAMAnIqAAgBADitQoIA6deqkypUrO/XChQvriy++0EsvvXS8DQBwegQUAAAAAMYgoAAAAAAwBgEFAAAAgDEIKAAAAACMQUABAAAAYAwCCgAAAABjEFAAAAAAGIOAAgAAAMAYBBQAAAAAxiCgAAAAADAGAQUAAACAMQgoAAAAAIxBQAEAAABgDAIKAAAAAGMQUAAAAAAYg4ACAAAAwBgEFAAAAADGIKAAAAAAMAYBBQAAAIAxCCgAAAAAjEFAAQAAAGAMAgoAAAAAYxBQAAAAABiDgAIAAADAGAQUAAAAAMYgoAAAAAAwBgEFAAAAgDEIKAAAAACMQUABAAAAYAwCCgAAAABjEFAAAAAAGIOAAgAAAMAYBBQAAAAAxiCgAAAAADAGAQUAAACAMQgoAAAAAIxBQAEAAABgDAIKAAAAAGMQUAAAAAAYg4ACAAAAwBgEFAAAAADGIKAAAAAAMAYBBQAAAIAxCCgAAAAAjEFAAQAAAGAMAgoAAAAAYxBQAAAAABiDgAIAAADAGAQUAAAAAMYgoAAAAAAwBgEFAAAAgDEIKAAAAACMQUABAAAAYAwCCgAAAABjEFAAAAAAGIOAAgAAAMAYBBQAAAAAxiCgAAAAADAGAQUAAACAMQgoAAAAAIxBQAEAAABgDAIKAAAAAGMQUAAAAAAYg4ACAAAAwBgEFAAAAADGIKAAAAAAMAYBBQAAAIAxCCgAAAAAjEFAAQAAAGAMAgoAAAAAYxBQAAAAABiDgAIAAADAGAQUAAAAAMYgoAAAAAAwBgEFAAAAgDEIKAAAAACMQUABAAAAYAwCCgAAAABjEFAAAAAAGIOAAgAAAMAYBBQAAAAAxiCgAAAAADAGAQUAAACAMQgoAAAAAIxBQAEAAABgDAIKAAAAAGMQUAAAAAAYg4ACAAAAwBgEFAAAAADGIKAAAAAAMAYBBQAAAIAxCCgAAAAAjEFAAQAAAGAMAgoAAAAAYxBQAAAAABiDgAIAAADAGAQUAAAAAMYgoAAAAAAwBgEFAAAAgDEIKAAAAACMQUABAAAAYAwCCgAAAABjEFAAAAAAGIOAAgAAAMAYBBQAAAAAxiCgAAAAADAGAQUAAACAMQgoAAAAAIxBQAEAAABgDAIKAAAAAGMQUAAAAAAYg4ACAAAAwBgEFAAAAADGIKAAAAAAMAYBBQAAAIAxCCgAAAAAjEFAAQAAAAxiWZYOHTrk1vIfAgoAAABgkIceekjFixfXDTfcoGXLlrmt+QcBBQAAADDId99953yePn26GjRooLvuuku//fab05YfEFAAAAAAg7zzzjvOCEqG//znP7rqqqvUvXt37dixw23NuwgoAAAAgEE6duyoDRs26Omnn1bBggWdtrS0NL333nuqVq2aXnjhBe3fv99pz4sIKAAAAIBhypQpo8GDB2vdunV64IEHFBKS/rb92LFjGjhwoKpWrapBgwY59byGgAIAAAAY6rLLLtPo0aO1atUqZ2Qlw759+9S7d29Vr15do0aNckZY8goCCgAAAGA4ew7K//73Py1atEitWrVyW6Xff/9d//znP1W7dm1NmjTJWaI42BFQAAAAgCDRuHFjzZ49W99++63q16/vtkpr167VnXfeqUaNGmnWrFlua3AioAAAAOQge26AzV6F6ZJLLnHKQE7yeDzOHik//PCDPv30U2fifAa7LTY2Vm3atNHSpUvd1uBCQAEAAMhBTz31lEaMGOHsZVG0aFG3Fch59sR5e4+UX375RcOHD1fFihXdI9KMGTPUsGFD/e1vf3Mm2gcTjxXgg2r2CgGFCxd2yvYfW5UqVZwysu/nn39WjRo1FBoa6rbkH/b/u9frVYECBZw+gFkOHDigLVu2OOWLLrpIZcuWdcpAMEhMTNT27dud8qWXXqqSJUs65Qvp119/VVJSkvMmolatWm4rgLNZvXq1M98iY9UqBM7n82nv3r3as2ePUz5Z+/btNWXKFLdmtoADin2BLVSokFsDAAAAEEzs8GIvX2y6gKNpREQEd7gBAACAIFS6dOmgCCe2gEdQMtjD5fbEHAAAAABmsB9rHTJkiMaOHes8Pp/BDibPPvussyt9eHi422q2TAcUAAAAAGaw54m//fbbev3113Xw4EG3Nf3pJ3vBBnszR3tFuWBCQAEAAACCjD1KMm7cOPXt21fbtm1zW/1v7j0ede7cWQMGDAjaZa4JKAAAAEAQmT59unr16qUff/zRbUln740yaNAgXXPNNW5LcCKgAAAAAEHADiR2MLEDysnq1q2rN998U61bt3ZbghsLTAMAAAAGsx/huv/++1W/fv1Twon9CNeYMWOcHePzSjixMYICAAAAGMjeMPmNN97QW2+95exJmKFYsWJ6/vnn1bNnzzy5TyEBBQAAADBIamqqRo4cqZdfftnZXDFDWFiYunfv7kyML1eunNua9xBQAAAAAIP87W9/0+eff+7W0t1+++0aOHCgqlev7rbkXcxBAQAAAAzy/fffuyXp+uuv14IFCzRp0qR8EU5sjKAAAAAABvn22281ceJEtW/fXh07dnT2NslPCCgAAAAAjMEjXgAAAACMQUABAAAAYAwCCgAAAABjEFAAAAAAGIOAAgAAAMAYBBQAAAAAxiCgAAAAADAGAQUAAACAMQgoAAAAAIxBQAEAAABgDAIKAAAAAGN4LD+3DAAAACAvS1ujKcOm6JeknIwAISp13d3qGnOpQt2W7CCgICj5kpOUGh6hgowBZoNPyUmpCo8oyFAqAOQKrsM5g37MjLQlL6h+s4Faleo2nMzjUUhIqL8fffJ6fcoICR5PiEJD03vX5/XK9+f44Cmm9h9u1JT7y7gN2cPPEUHHt3OqHmvcQi//kOa2IPN82jn1MTVu8bLoRgDIDVyHcwb9mDlerZ8Vp7V2X3nCVb7BHXp6yHh9vWCVNu3ar6RUfzBJS9avg1uogCf9X/hPVLH2H2pnaqpS/R/e1MPavX6xprzTXc0qhPmP+s8o0EBRUaXST88BBBQEl8Pf6/W7Ouv93XXUtHaY24jMOvz967qr8/vaXaep6EYAuPC4DucM+jGTfLs0O26l0jzlFNXvO/24+HMNfvLvatu0liqXL6GCzvNZiYqbvUwpx4dPItQwNlrH40doYZWr2kjtHx+ubyf11NXhHoXVilRMpZyLFQSUYOBLVlKyz63kX77EBL3c7hb1S9inok1j1LywewCZ4FNiwstqd0s/JewrqqYxzUU3AsCFxHU4Z9CPWXIwXrO/96rmIxM0qV+UKp5uwsjhuZq18Mjxx7sUVkcxMRefNjQUbXKn2l1ZQJVbxqhGDgZEAorpfDs19bHGavHyD8rPI5f7l47U/ZG3qH/8HnnlT/LRrVTCPYZA7dfSkfcr8pb+it/jlSIaKroVvQgAFw7X4ZxBP2bV0fmztaj8A3rnldYqfYYUkLx4pubtO3FjPOzKaMVWP8PUd08JlShRXs2jG6iA25QTCChGO6zvX79Lnd/frTpNayv/jVz6dGDdDI18pq0aRnbXuNWH/C1+IeVU7MAsfTJ+vMZP+FwLtvovTjgz3wGtmzFSz7RtqMju47T6UPpFJ6RcMR2Y9YnG+/txwucLnDYAwHkQ4HWYl7NzoB+zKU2//bRLLZ9/XjFnzHNpWjlrrrYf78NQVWoZq7pnehPqPaADVhPFNMvZ8StW8TKVL1EJA+7QHQPmaG+xjhq34b/6e87NPQoKR7/roXp3jtYW+yFIX5pSUr3OcKMnNFwFwtxsHXaVnp69WK82ysncnpcc1Xc96unO0VucZ0l9aSlK9Tq9qNDwAjrRjU/r8PJX0ysAgBwU+HV49uJXxcvZmdCPF4R3rV5vXkcvLEpNf8QrpLzum7ReYzsWdQ7/VbL2/L5fRSpVyNFH7BhBMdH+pRp5f6Ru6R+v9JHLaOXHkcvCNwzTuoPHlJR0WD/0qeeOIIXqkq5f60BSkr/d/3F4OeHkrArrhmHrdPCY3Vc/qE899xZI6CXq+vWB9D70fxBOAOB8Cfw6zMvZ2dCPF4Jv12zFrUw7sbxwsesVG3mmcGIrqHI5HE5sBBSD+A6s04yRz6htw0h1H7da6SOXISpX7IBmfTJe48dP0OcLtjrn5iu+HYqbszp9Dk5IcTWNauT/c0Bm+XbEac7q9JlMIcWbKqoRvQgAFxLX4ZxBP54/B+Nn6/vjGzh6FNEwVjEl3eoFREAxxdHv9Ph1DdX+iWGavS1FIRlrT/s/75jWXw917aquXR/Wa1/vcA/kIwcSFL8sOf3xrohGimpZLL0dmXIgIV7LktOHwyMaRYluBIALi+twzqAfz5ejmj97gXuD3M8TpmtiYlQxF9ICAcUUhW/QsHUHdcwenvyhj06MXHbV1wfShy3tR52Wv9oo/UA+krQwTosOpaf5sDqRalWeX9vMS9LCuEVK78Yw1YlsJboRAC4krsM5g348b1KWadbc3To+Pz6shqJjr9AZ1u86r/iRGsenHXFzlD5yGaLiTaOUv0cuU7Q8br52O38tYarWMkpVA/hLSfljvb7/dqJGvNZbD3Vqp15T9rtH8qmU5Yqb7150wqqpZVTVs1xwkvX7gvEa8Egn3RzVXK3a3afHX/1Ey//IuKUCAMi0TF2Hz6cU/bH+e307cYRe6/2QOrXrpaB6iTSmH/OetLWzlLAx/dE5W2ilSMVe494xv8AIKMY5oIT4ZUofuYxQo6iWytcjl94Nip+7Pn3+SWgFNYuqd/Z1tn1/aOHovurdd6BeebabevzfIH3wv40KvehsE7zyPu+GeM1dn37RCa3QTFH1ztCLyWs1rmtj1W7xD/Ub8Zmmxc/XnKnj9W6fe9WsaRd9uun4fRUAQCYEfB0+j3x/LNTovr3Vd+ArerZbD/3foA/0v42hCqaXSBP6MW/yadusOK06nk9CVKZlrBrn0k1yAoppkhYqbtGh9NUTwuooslX5fP1D8u2O15yf0v9aPMWaKLpphFM+o5DSavrgAL3171Ga0CtKER77DkBLxZ5xAe/8wKfd8XOU3o0eFWsSrdN3437NeKaDnllSU098OE0Lli1R/Bcj9HSbyv5+tHRs3Xj1eOJjbWUgBQAyKdDr8PkVUrqpHhzwlv49aoJ6RUX4v5Nz7HFhHDP6MW9KVNzsZc4Szg5PMTWLbakibvVCI6AYJmV5nOanP8+ksGotFRXI80x52JG58VrirCbhUUSDKEUWT28/t2QtXbJSyVaISjfPvTsAZjiiufFLlN6NEWoQFanTdWPa8rc1cPVdmjxnol7qfKOa1m+oyA7dNPibBRpz1yX+lzGf9k2foMm/k1AAIHMCuw5fMMlLtWRlsqyQ0moe2ziIVsY0rB/zksNzNWvRkRPLC0c0VEx0Lizf5SKgGMWrDfFzlT5yGaoKzaIUyMhlyu8JGvlCV91xk/8NfMwdevzdOSftABrMkrU4boEOOO+Hw1SrVVTgK0mk/aQZ8Vvl9RRR09hI5esHvJIXK27BAX+88AurpVZRFU/zh+9T4h9V9Nj7/6emf74ehVysjj3/rhphkpW2RRs2pY9oAQACFNB1+MJJ+2mG4rd65SnS9Bx7XBjGsH7MS5IXz9K843NNPQqrG6vY3Fi+y8XP1SS+3Yqf81P6fAtPMTWJbqqzj1we1sqRf1e9Rj21pNo/9e/JMzTl3dt0bGQHRT30X23P+D0LVv6QETdvpzsRropaRgW+koR3/UzNXpMmT4GGio7KZ1vw/0naT3Gat9MdlavSUlFXnK4XQ1QhprM6XnH6cf6wShergn218JRQyZJcNgAgMwK7Dl8oXq2fOVtr0jwq0DBawfQSaVY/5iVpWjkr4aSb22GqER2rarnYvbzTMMmRuYpfkuTu99FAUWd9numwFr92i2Iem6cGb0/V+w82VoWCYSp59T0a9OJN2j/uWfWfcdg9Nzh5N8drzrr0u/Uh5Zopqn6gE+F82jlrln5MsxRWu5ViKuXnX3OvNsfPUXo3hqhcsygF3I0nSVm7Tpu8/hez2jer/VX5eT4PAGRWZq7DXh3evkpzv/xYb/cfpMkb3HeM3h1aOH6Qej/2uF7+5EcdSG/NGt9OzZr1o9KsMNVuFaPgeYk0rB/zEu96zYpbm36D3BZ6iSJj6/hjSi6yYIykGd2sS0OdfGKFNxxgrU5zD/yF19r+vwesK8JDrQp3jLd2eN1ml3fjEKtlgRCr3D2TrINuW/DxWrs+uNkq6rH7w2OV6DjWSnSP/BH3jvXu7P1u7XQSrbEdS1gehVk1np5vJbut+ZJ3l/XBzUX9feHvR08Jq+PY471oxb3zrnXWbszg3WZ9eGsZKyS8utVtWqL/JxNc0tIC+44DOy/NCuy0tID6KdDvDUAQC/Q6fHCh9d6jHaz65cOdc0MqdrYmH/L/852zrJfb1raurHGJVTRElie8lvXc4my8siWOtTqW8FgKq2E9PT+IXiFN68c8xLt9hNWmsP93wu5bu88q+PvssHswlzCCYow0/RQ3T+kjl2Gq0jJKZxy5/OMrvfDEx1pvXaF7e97xl3kZIWVKqrjHp31L5mlFitsYdI4oYfYiHXWGkwrq2laRsqdGeDeM1eODd6nedSWcs07rcIJmzD8kK7SCWsRce/ZlifO6Iwmaveioc8XxFLxWrSKdXtSGsY9r8K56Ols3pvNp1xfP66VpXjXpM1Zv3lQ6aIZd09aOV9eG5VWkcBld1fFfWnSGW2WBnZemteO7qmH5Iipc5ip1/Nei0995S1ur8V0bqnyRwipzVUf96wz/0UC/NwB5QKDX4WJN9PCwSfr8mUb+dwEhKhXZVpFaoiFPf6TCL8Trl5Xj9UCVMFm+A9p3wP5qWXM4YYbmH7IUWqGFYq4NoldIw/oxLzkYP0vfOysP2Dwqdn2MWuTW8l0Z3KCC3Jb2m/VmswLpdwZCLrK6fHXEPfBnSdbiF66xCng8VqEWg61fTzPK4t3xbyu2gCxPoVutj4N1CCVpptW9cqj912IpvLb1wpJUy7tzmtUz8kZr4LJj7kmnlzSzu1U51F6cpJP1n0BGCPKwjL6w+zG89gvWklSvtXNaTyvyxoHWObrRkbbxY+v2SkWtqx+ebP0eTDf7vTutj24tad+BSf8d8hSw6vdb5h48SYDneXd+ZN1aMiT9HP+Hp0B9q9+yVPdoBn/ffnSrVTLE/VryWAXq93OPnSTQ7w1AnpC56/B+69M7S1khnpJWxzE/Wf95oos1eIl7K3v/eOu2Eh7/a3tr699ZviAnWTO7V7ZCFWKV7vQf/38teJjVj3nJEWvqgxf7fycyXpMKWbH/3pbrT0sEy83QPM+XGKf4H1Od3w57v4+o6wunH9gXr6HD4k7crT30rYaPWa0UFVSjjrepymlGWXy7dynR/4Us7yEdPBScM+W9m5doecZsrbT1+qx3J8VG91XyU6PVq/7Zlg5I0YoZc/S716NCjWMUmb93udTmJcuPT3pLW/+ZeneKVXTfZD01upfO2o22Qwv1yt97aVXrUfp62K26OJiuFr7d2rztSPpKLzYrTds2b3UrJwnwPN/uzdp25MTfkpW2TZu3Hn9a1+XT7s3bdOI0S2nbNrvlkwT6vQHIAzJ5HU5aoJkLDsoq0kR1dg/VnOteVM+G6beyk5cv0vLDlsLqRCrKWbUkC1JWaMac3+X1FFLjmMgg2gjasH7MS1KWadZcd2d+W9g1io7O/dXR+MkY4kjCbC1Kf55JBa9tpfSRyw0a+/hg7ap3nTJGLvd8OU5f7fTKE15fN9182WlXtUpZv0Fb7d80T7gKhAfnj9hT5gpVKxvq7w0/K0lb1uzVta9M0tD2F5/9l9b7m2bO/lVp/v/3+tExKpuvf8M9KnNFNZUNdXrR341btGbvtXpl0lC1P1faSF6jD/5xn/5T/S1N+6CTLg+2efFhV+uuB2JVzv1/9xSrr38+GOWUTxHgeWFX36UHYssp/TSPitX/px6M+vMrYpiuvusBxZZzf289xVT/nw86R04R6PcGIA/I3HU4ZelMzd3lU4FLDmnlltbqc3dl93U+TWvi5mubN0zVozJWV/Jpx+c9dWNMjGJO/oi9WX2+Pf0iOd7fZmr2r2nOe4jomLJB9CbwfPZj/pa28hvN2HjihlvY5derhQl78LkjKchVGUOu9gBKuFX7hSVWqnenNa1npHXjwGXWiZHLI9YX95VzHg0Jb/Cy9dOfnzBxpForX7zWCvefE1LmPuuLAB7jMdWxjXOs8cOGWiMnzrR+/iOwwUbv5nesKHvb8/B6Vr/lp+2gfOaYtXHOeGvY0JHWxJk/WwF1Y9oma2LnOladzp9Y64O6C5OsTQkTrBHDP7ZmrD3ktp1OgOclbbISJoywhn88wzr7aQnWhBHDrY9nrLXOfFqg3xuA4Bfoddj/+v1SA//rt8cKLdveGrXppBO9G623IgtantDLrG4zktzGY9bUf15uFStSxCpy8keJBlaf007+9lqb34myIjz+9xD1+lnB9xJ5vvoxP9tvTX3wshOPd/k/CrR629oSyHuF84yAYoK0tdbAJuHuL4fHKnRFtHVb1NVWg+5TTn3uP3mR1euqMP85oVaVHrP9b3FOZ781/rbizlyW8OvfOO0clbxs90ftrWL+i29YtcetOSzOkXneHdZXPa6z6gd9OAGAIGO/eW7lf/PsCbNqPjP/1Nf4vR9Z7Yt5rJByf7f+m+V7Grutj9oX878/CLOqPT4n765wed77MY84ttmaOfAW69LwE6t32R+hF91hfbwp998ABM/oXl7mKaMrqpV1Hx+xlLRljfZe+4omDW1/6nP/h1dp1Uav//xCqntdfRV0m09xdL7iFh/xf5UwVW8Rqcvy1fDlISXMWKAj/l/rsi1i1TBfL9+VBb4/FN/vLvU//KQmjbpbVf/0WNeBuRP033XHn1IFAOSkxDjNXpoihdXTPZ0bnfIaf2RunBYdkYo0jZWz8bvPd2IeW6AOJWjGAv/7g5CyahHbMO+ucHm++zHIHfimj9o2r6vKFa9Q6+enamuqnUtO8O74r7rUvFjV6zVRy9hb1X92knvkwiKgmCCkjO4YtUCzxw3T0JETNWPFKsUN7viX5/69O3doj9f/ixRWVbVr2X9Zf5W8aJpm2WsVh12htrfWz19L7CYt0PS5++QLKaHmbVrIXWYAATms79+8R89vfVgTPzg1nPiS92tDwlA9/EKCClzEA7sAcD4cTpiphf43z+HX3qY7TtkQN0XL5izUH1a4rm3VSiVT1mjUk68oLpN7MSctmK65+3wKKdFcbVrk3VfI892Pwa7ETa9o2rwftXl/inzpT1L96cMn77Hd+nXFIiXMnKJ+0edaUef8IKCYIuJytfz7o3rsoU6KuarUaX8wVmqqUv2fPaGXqsqfb287krRoynfa5vUo4rp/qEuj/DWEsG/GZ/rWXuIjrI6aNj3bLvw4VZJWDb9bHftM16Kx96hauEcez4mP0IhSqhb5lL6v20mt8/WqaABwviRr0cx52ucLU5227VT95HtBvl1atmKz0kLKqkrF3fq01xvacfvjijn9fcoz2KcZn33rrIIVVqep8u5L5PnuR1woBJQgElLC3oDRH1CKlFbpQm7jSXyJUzRi4galhVZSp14P6+r8cLM76WdNebu/nnngBjW5d4y22E8gpa3Qh08/p9feGqnv1vNI0rkcnfWsOvT8WtvTTh3mPUXYlbrj3ubKnfsoAJDHpazQzITt8obX0A1ta+qUW5AhRVSubFGFeHdowhM9taL1a/q/lvZSn+eW9PMUvd3/GT1wQxPdO2aLs5Rs2ooP9fRzr+mtkd8pz71Enqd+xIXnsezxHASH5BnqdsVNen9/B03YOUl3n7LLp1dr3mylBr0XqHiHD7V4UmddRvwEACD4Hd6s5av2qlTN+rq8JC/uWUY/Bg1+OsGk4PXqcNPFCkneoDW/nbpJnHfjh3r2zYUKrfeYRg+/j3ACAEBeUbSy6jdpwJvq7KIfgwY/oaBSRK1799VNpVbpk3e/0S536Qnvjm/U685nNefi7vrk6yFqW5EfKwAAAIITj3gFHZ/2LRyqR7oP0bISjdXk0qP6eelOXfa35zXgmTt0NZOYAQAAEMQIKEErSXvW/6bdIRerepXS+Ws5YQAAAORZBBQAAAAAxmCyAgAAAABjEFAAAAAAGIOAAgAAAMAYBBQAAAAAxiCgAAAAADAGAQUAAACAMQgoAAAAAIxBQAEAAABgDAIKAAAAAGMQUAAAAAAYg4ACAAAAwBgEFAAAAADGIKAAAAAAMAYBBQAAAIAxCCgAAAAADCH9PwOY8ZuCVFUEAAAAAElFTkSuQmCC;" vertex="1" parent="2">
                    <mxGeometry x="11" y="37.24" width="248" height="125.53" as="geometry"/>
                </mxCell>
                <mxCell id="4" value="Ereignisse" style="text;html=1;align=center;verticalAlign=middle;resizable=0;points=[];autosize=1;strokeColor=none;fillColor=none;fontFamily=Tahoma;fontSize=26;" vertex="1" parent="1">
                    <mxGeometry x="105" y="240" width="140" height="40" as="geometry"/>
                </mxCell>
                <mxCell id="6" value="" style="group" vertex="1" connectable="0" parent="1">
                    <mxGeometry x="350" y="40" width="375" height="200.00000000000003" as="geometry"/>
                </mxCell>
                <mxCell id="7" value="" style="rounded=1;whiteSpace=wrap;html=1;sketch=1;curveFitting=1;jiggle=2;fillColor=none;" vertex="1" parent="6">
                    <mxGeometry width="270" height="200" as="geometry"/>
                </mxCell>
                <mxCell id="9" value="" style="shape=image;verticalLabelPosition=bottom;labelBackgroundColor=default;verticalAlign=top;aspect=fixed;imageAspect=0;image=data:image/png,iVBORw0KGgoAAAANSUhEUgAAA3UAAAG9CAYAAACyKl/QAAAAAXNSR0IArs4c6QAAAARnQU1BAACxjwv8YQUAAAAJcEhZcwAADsMAAA7DAcdvqGQAAESgSURBVHhe7d0JnE3lH8fx7yyMNSR7xlJGZEQhu1kopM2SSCpKCWVJkkKytemPZGmxRKWaFlJkmWFISLYskbVkz66ZMfee/713DkMNZjnunTPzeb9ek3OeM/fq5Sz3fO/ze87jZ7gIAAAAAGBL/uafAAAAAAAbItQBAAAAgI0R6gAAAADAxgh1AAAAAGBjhDoAAAAAsDFCHQAAAADYGKEOAAAAAGyMUAcAAAAANkaoAwAAAAAbI9QBAAAAgI0R6gAAAADAxgh1AAAAAGBjhDoAAAAAsDFCHQAAAADYGKEOAAAAAGyMUAcAAAAANkaoAwAAAAAbI9QBAAAAgI15JdTt3LlTLVq00Ntvv222AAAAAACs4Ge4mMtXhfvtixcvroMHD3rW58yZo+bNm3uWAQAAAAAZc9V76hYtWnQ+0Lm98MIL5hIAAAAAIKOueqgbOnSouZRkw4YNWrx4sbkGAAAAAMiIq1p+uXTpUjVo0MBcS+Zucwc7Pz8/swUAAAAAkB5Xtafu371058TGxmr+/PnmGgAAAAAgva5aT92qVatUq1Ytc+2/atasqRUrVtBbBwAAAAAZcNV66i7spcuZM6e5lMwd+mbPnm2uAQAAAADS46qEunXr1mnWrFnmmnTttdeaS1LVqlXNJWngwIFyOp3mGgAAAAAgra5KqBs+fLi5JFWsWFH58uUz16SHH37YXEoKf1FRUeYaAAAAACCtLA91mzdv1ueff26uSS+++OJF4+YqV66sZs2amWvSoEGD5HA4zDUAAAAAQFpYHupGjBihc89eKVeunNq3b+9ZvtCrr75qLiWFwE8++cRcAwAAAACkhaWhbvv27fr444/NNal///4KDAw015Lddtttuu+++8w1afDgwTp79qy5BgAAAABILUtD3ciRI8+XUl5//fXq2LGjZzklQ4YMOV+W6Q6DU6dO9SwDAAAAAFLPslC3Z8+ei4JZv379FBQUZK79V2hoqNq2bWuuJZVkxsfHm2sAAAAAgNSwLNS9/vrr50soixUrps6dO3uWL8dddunvn/S/4A6F77//vmcZAAAAAJA6loS6ffv2XRTInnvuOeXOndtcuzT3dAcXTnEwbNgw/fPPP+YaAAAAAOBKLAl1b7311vnSycKFC+upp57yLKeGewLycw9TcYfD8ePHe5YBAAAAAFeW4VB36NChi4JYr169Lpps/ErKly9/Uamme0qEU6dOmWsAAAAAgMvJcKj73//+pzNnzniWCxQooO7du3uW02LAgAHKmTOnZ/nw4cMaM2aMZxkAAAAAcHkZCnVHjx7V2LFjzTXpmWee8QS7tCpduvRFJZtvvPGGjh07Zq4BAAAAAC4lQ6HOHehOnjzpWXaXXD777LOe5fRwT1R+7uEq7kD39ttve5YBAAAAAJeW7lDnDnPu0stznn76ac9DUtKrePHi6tGjh7kmT6g7cuSIuQYAAAAASEm6Q5374Sju8ku3XLlyqXfv3p7ljOjbt+/5h6y4Q6O7DBMAAAAAcGnpDnXLli0zl6QuXbp4JhzPqOuuu87z9MxzoqOjzSUAAAAAQErSHerCwsI8f95www164YUXPMtWcPf4Va9e3bMcGRnp+RMAAAAAkDI/w8VcThP3y/bs2aOCBQte8YmXISEh2rZtm2d5zpw5at68uWf5UtxTJLjnv3M/FdPfP0PPcgEAAACALC3dicnPz09lypRJ1xQGV5InTx7PexPoAAAAAODySE0AAAAAYGOEOgAAAACwMUIdAAAAANgYoQ4AAAAAbIxQBwAAAAA2RqgDAAAAABsj1AEAAACAjRHqAAAAAMDGCHUAAAAAYGOEOgAAAACwMUIdAAAAANgYoQ4AAAAAbIxQBwAAAAA2RqgDAAAAABsj1AEAAACAjRHqAAAAAMDGCHUAAAAAYGOEOgAAAACwMUIdAAAAANgYoQ4AAAAAbIxQBwAAAAA2RqgDAAAAABsj1AEAAACAjRHqAAAAAMDGCHUAAAAAYGOEOgAAAACwMUIdAAAAANgYoQ4AAAAAbIxQBwAAAAA2RqgDAAAAABsj1AEAAACAjRHqAAAAAMDGCHUAAAAAYGOEOgAAAACwMUIdAAAAANgYoQ4AAAAAbIxQBwAAAAA2RqgDAAAAABsj1AEAAACAjRHqAAAAAMDGCHUAAAAAYGOEOgAAAACwMUIdAAAAANgYoQ4AAAAAbIxQBwAAAAA2RqgDAAAAABsj1AEAAACAjRHqAAAAAMDGCHUAAAAAYGOEOgAAAACwMUIdAAAAANgYoQ4AAAAAbIxQBwAAAAA2RqgDAAAAABsj1AEAAACAjRHqAAAAAMDGCHUAAAAAYGOEOgAAAACwMUIdAAAAANgYoQ4AAAAAbIxQBwAAAAA2RqgDAAAAABsj1AEAAACAjRHqAAAAAMDGCHUAAAAAYGOEOgAAAACwMUIdAAAAANgYoQ4AAAAAbIxQBwAAAAA2RqgDAAAAABsj1AEAAACAjRHqAAAAAMDGCHUAAAAAYGOEOgCA5RIOrNU3Y19St0cfUIuIuqpRo57uaPmIer0epQ3HnOZvAQAAKxDqAACWObXpcw1oWU2ly9RVj8/2qGDNNnp26DhNfm+YOpbeog/7t1HN6q01YUOc+QoAAJBRhDoAQMYl7NQ3A5qqao22GhmdU22nrNam2Gka1q2NmtStrtDqYbq7UYhyy1D8rq/1XNcx2uQwXwsAADKEUAcAyJjjqzS6TZjajJin3bkb6tW5CzXmwUrKZ272cB7Ql1Nm66Cn8tLQ6VXzFXOIMkwAAKxAqAMApN+xWA1qfqd6z9qjxIBgtZ/wsV64Pb+58QLGSR08fMYV55L4Fy6lUnn5CAIAwAp8ogIA0sexS1M7t9Ow5UflVIBKPzRab7UqmfIHS0B5dRzQR3eGVlDFWq00cOpw3Z1C9gMAAGnnZ7iYy1dNSEiItm3b5lmeM2eOmjdv7lkGANiVQ7+Pa67bn/lBfzsl/4JNNW7Nt3qqbIC5HQAAeAs9dQCANHPu/1T9X13gCXRSgMq066OHCXQAAPgEoQ4AkEaJWvPum5qV9NQTKUcltesUprxJaxZw6MjazzS8e3vdE9FIje/vqGeGfaw1SQkSAAD8C6EOAJA2cbGaMmODEszi/cCQFrq3WmDSSkY5D2jR4BYKe2SC1quUbiibS38snKGxL3VQ3dqP6uNdzIMAAMC/EeoAAGmSsGqW5u05F64CVKxOQ1W1JNMlavO45/VhwVe0ZM0iffrOG3r7w3laPf8l1crrypLbZqjPS1/rqPnbAAAgCaEOAJAGDv2xfKV2JZqrrlAXUrWqcpprGeI8qtPVn9P4nrVU6IJPp3y3P6unI/PKT04dil2g1fHmBgAA4EGoAwCkQaK2btvtilcm/wIqHVzYmg8T/yKqUT9U/53pIEi5gsyHsPj5ucIdAAC4EKEOAJAGDp04fjI51PnlVf78VzlmHV+kH5afkqEAlYhsptuCzHYAAOBBqAMApIG/cufJldxbZiQoLs5cvhrit2tGt176aK+/SjUerBlv3KWC5iYAAJCEUAcASINABQeX0PkZ6YzD2rHtQHLP3aU49urbQT01YV1qB8Ql6uDKD9U9spF6rauiXpN/1Lp5L6nhtXxsAQDwb3w6AgDSIFCVGtVVyXOpzjirVbNnac/lUl3ibkV1ba5ea29Sw5suXTuZeGy31i76QhOHPqM2dW9Q+TpPaMbZdpo6L0qvPVJDhfnEAgAgRXxEZiNffvml1q1bZ64ByK7i4uI0cuRIcy3tgho9qc7Vz5VgGjoVM1J9p+/U+QdiXiB+12y9eEd9dd/6gD6a/pQqXzLTuZ+qOVvfLV2rTVt/0+at+3TG6dSxlW/p3tqtNXETj7wEgMwmKipK69evN9fgS4S6bOSLL77QihUrzDXAdwzDnLUaPvHXX39p1KhR5lo6BN6ivpOGKKywf1Kwc+xVVJeGuqPHaEUtXq0N61Zo0awpGt6liUKrP6p5Nw7XgjkDVPu/j7W8QIDKNeuuFwcO1ehp87Tut2Ua26qccvgZOvvHN+rbY6K2M+84YCmuxcgo7i0zD0IdAK+rWLGiTpw4Ya7BjnJV76vZMZPVLTxYeVzJzoj/U9Hv9FTrsBqqWq22Gt/fXZM2l1CHD5YpdtLDujmv+cJUCihcU92mfqy+1YJcwdHQqWWz9cOhK47cA5AGgwcP1sSJE801AHZGqAPgdXv27FFCQoK5BrvKW6Wjxi7apl0bozVz4igNHzxQg0eM1nvTv9KiDbu1PXaaBra8SXnM30+zvLX05KN1FeQOjc79+vNPQh1gpcOHD+vYsWPmGgA7I9QBADIgp4pUCtMDXXqp/6BXNOiFZ/T4Q/cprHLh5Cdkppu/it9SRSU9n1RBysn8dAAApIhQB8AnGMuBVHEluZx+rg+rApVUtXyg2QgAAC5EqAPgdX5+Sc9NBK4kcf8+HXQGqFjzVopI47g8AACyC0IdACCTOqPYebE6kbeOevZtoQJmKwAAuBihDoBPUH4Jxf2q6f066bHuQ/Xp+mP692NQ4taM0bDPEtX09UnqWYXSSwAALoVQB8DrKL+EW8LqyXp11GRNGfey2te+VXcN+Ewb/k6UEg/q5+l91KztJyr7+lx9+lQl5TRfAwAA/otQB8An6KlDzts66tn7K6lgoJ+Mf3Zq7vC2uqX4tSpW+X69tamSBv2wXNMeDxVD6QAAuDxCHQCvo6cOHrlu0dOfbdL+/b9r/cqftHL97/rryN86sHWZPhn+uMLKpnuGOwAAshVCHQDAp4IKl1dozdtVM/QGFc/P2DkAANKKUAfAJyi/BAAAsAahDoDXUX4JAABgHUIdAAAAANiYn+GFGqiQkBBt27bNszxnzhw1b97cswzvat++vcLCwtSlSxezBfCNfPnyea4JJUqUMFvgLYMHD9abb76p06dPKyAgwGwFkB25qybq1q2rxYsXmy1A2rRr104RERF64oknzBb4CqEuGyHUIbPInz+/tm7dSqjzshMnTqhQoUJyOv89zTeA7Gz//v0qVqyYuQakHqEu86D8EgCyCXeYdn8rDwDnlCpVSkWLFjXXANgVPXXZCD11yCzc4eK3335TyZIlzRZ4i8Ph0Jdffun5VjUqKspsBZAdjRs3TjVr1lT//v3NFiBt6KnLPAh12QihDpnFNddcoy1bthDqfGTHjh2qXbu2Dh48aLYAyI66deum4OBg9evXz2wB0oZQl3lQfgkAAAAANkaoA+ATXigSAAAAyBYIdQC8jsnHAQAArEOoAwAAAAAbI9QB8AnKLwEAAKxBqAPgdZRfAgAAWIdQB8An6KkDAACwBqEOgNfRUwcAAGAdQh0AAAAA2BihDoBPUH4JAABgDUIdAK+j/BIAAMA6hDoAAAAAsDFCHQCfoPwSAADAGoQ6AF5H+SUAAIB1CHUAAAAAYGOEOgA+QfklAACANQh1sF7CAa39Zqxe6vaoHmgRobo1aqjeHS31SK/XFbXhmJzmryH7ovwSAADAOoQ6WOfUJn0+oKWqlS6juj0+056CNdXm2aEaN/k9DetYWls+7K82Naur9YQNijNfAgAAACBjCHWwQIJ2fjNATavWUNuR0crZdopWb4rVtGHd1KZJXVUPra6wuxspJLdkxO/S18911ZhNDvO1yK4ovwQAALAGoQ4ZdFyrRrdRWJsRmrc7txq+OlcLxzyoSvnMzR5OHfhyimYfTCq8NE6v0vyYQ55lZE+UXwIAAFiHUIcMOKbYQc11Z+9Z2pMYoOD2E/TxC7crv7k1maGTBw/rzLmOGf/CKlUqr7mC7IqeOgAAAGsQ6pBODu2a2lnthi3XUacUUPohjX6rlUqmeEQFqHzHAepzZ6gqVKylVgOnavjd/41+yD7oqQMAALAOoQ7p4vh9gp7s/bX2OgzXUVRQTfoP1t1FL304+Ze4SyPmrtfWLSv0xaAmlwh/AAAAANKKW2uknXO/Pu3/qhb8nTRGLqBMO/V5uKwCPGsWSfhb21fO06fjh6tflwfVcdRKcwOyCsovAQAArEGoQ5olrnlXb846aM43l0OV2nVSmEVD5Jx75+rNZx5TqxZ3KCy8mdo9PUCvvz9LfwWVMn8DWQHllwAAANYh1CGN4hQ7ZYY2JJi9LIEhanFvNQUmrWWYf6mmem7MZEX98JO+73erKzK6BIYqIrK4ZzsAAACAixHqkDYJqzRr3h6dm2UuoFgdNaxqVaS7kEN79x7w9AYGhkSocXlLizuRCVB+CQAAYA1CHdLE8cdyrdyVaK65Ql1IVVXNaa5YKWGNFi7Z74p2ASrZMFK3XI2/Az5D+SUAAIB1CHVIk8St27Q7aTCdi78KlA5W4atwFCVum69F213h0f9aNWxcW0FmOwAAAICLEeqQJo4Tx3XyfKjzU978+V3/tZpTf85fpF9dmc4vbx1FNspntiMrofwSAADAGoQ6pIl/7jzKdT7FGUqIizOXLeQ8rIULf1aC4aegGpGKKGS2I8ug/BIAAMA6hDqkSWBwsEqcf2aJocM7tunA+Z67S3Fo77eD1HPCOsWbLZd1MkbzfzzjevdAVQmPVCmOUgAAAOCSuF1GmgRWaqS6Jc+lOkNnV83WrD2XS3WJ2h3VVc17rdVNDW9K1di4uB/na+lx13sG3qDwJhWsndQcmQbllwAAANYg1CFtghrpyc7Vz5dgGqdiNLLvdO1MfiBmsvhdmv3iHarffase+Gi6nqqcmkiXoJ/nL9EBhxRQvKEiq/HYy6yI8ksAAADrEOqQRoG6pe8kDQkrLH/PfblDe6O6qOEdPTQ6arFWb1inFYtmacrwLmoSWl2PzrtRwxfM0YDa+T2vvqLEzZofs1OJrkOzYIPGqpvLbAcAAACQIkId0i5XdfWdHaPJ3cIVnMeV7Ix4/Rn9jnq2DlONqtVUu/H96j5ps0p0+EDLYifp4Zvzmi+8Msfu+Vq00f3Yyzyq07iRUv9K2A3llwAAANYg1CF98lZRx7GLtG3XRkXPnKhRwwdr4OARGv3edH21aIN2b4/VtIEtdVMe8/dTxalDCxdqzVlDfjlvU0TEdRygWRTllwAAANbhnhkZkrNIJYU90EW9+g/SK4Ne0DOPP6T7wiqrcLqebnJCi+b/pH8MKbBKuBpfz+GZldFTBwAAYA3umpF5nInVgmUn5FSgyjVqrIqBZjuyHHrqAAAArEOoQ6YRv3K+Fh90SgFF1SDyNvHcSwAAAODKCHXIJBK1YUGM/nC4Dspr6qsxj73M8ii/BAAAsAahDpmC89A8TZy52RXtpIAKt6haKmdAgD1RfgkAAGAdQh18x7Fb88YOVO/O96tO9Tb64PdEuftuEte8q8cf66NBQ8fq+x2OpN8FAAAAkCJCHXwnoIzu7DFEoz74Siv+PCOnYXhK8pwJf2rptLf0yks91Kx8uh6jCRug/BIAAMAahDoAXkf5JQAAgHX8DC98XR4SEqJt27Z5lufMmaPmzZt7luE969atU3h4uE6ePKmAAHq/4DvXX3+9Tpw4oZiYGFWuXNlshTft2LFDtWvX1sGDB80WANlRt27dFBwcrH79+pktQNq0a9dOEREReuKJJ8wW+AqhLpvo2rWrJkyYYK4BvhUUFKTVq1fr5ptvNlvgTYQ6AG6EOmQUoS7zoPwym3CfcEBmkTt3bnMJAAAAGUVPXTZyzz33qHz58vz7w6dKly6tpk2b6rvvvqOnzkfoqQPgRk8dMoqeusyDUJeNtG/fXmFhYerSpYvZAvhGmTJlPNeCKlWqmC3wJkIdADdCHTKKUJd5UH4JwOt4+iUAAIB1CHUAfMILRQIAAADZAqEOgNfRUwcAAGAdQh0AAAAA2BihDoBPUH4JAABgDUIdAK+j/BIAAMA6hDoAAAAAsDFCHQCfoPwSAADAGoQ6AF5H+SUAAIB1CHUAAAAAYGOEOgA+QfklAACANQh1ALyO8ksAAADrEOoAAAAAwMYIdQB8gvJLAAAAaxDqAHgd5ZcAAADWIdQBAAAAgI0R6gD4BOWXAAAA1iDUAfA6yi8BAACsQ6gD4BP01AEAAFiDUAfA6+ipAwAAsA6hDgAAAABsjFAHwCcovwQAALAGoQ6A11F+CQAAYB1CHQAAAADYGKEOgE9QfgkAAGANQh0Ar6P8EgAAwDqEOgBZUIIOrP1GY1/qpkcfaKGIujVUo94davlIL70etUHHnOavAQAAZAGEOgA+cXXKL09p0+cD1LJaaZWp20Of7Smomm2e1dBxk/XesI4qveVD9W9TU9VbT9CGOPMlAAAANkeoA+B1V6P8MmHnNxrQtKpqtB2p6JxtNWX1JsVOG6ZubZqobvVQVQ+7W41CcrvSZLx2ff2cuo7ZZL4SAHA1JRxYq2/GvqRujz6gFhF1VaNGPd3R8hH1ej1KGyidACxBqANge8dXjVabsDYaMW+3cjd8VXMXjtGDlfKZW5M4D3ypKbMPynP7YJzWqvkxnnYAwNVxatPnGtCymkqXqasen+1RwZpt9OzQcZr83jB1LL1FH/Zvo5rVW2sCpRNAhhHqAPiEVeWXx2IHqfmdvTVrT6ICgttrwscv6Pb85sYLGCcP6vCZc3+nvwqXKmUuAwAslbBT3wxoqqo12mpkdE61nbJam2KnaVi3NmpSt7pCq4fp7kYhyi1D8bu+1nNdx2iTw3wtgHQh1AHwOqvKLx27pqpzu2FaftQpBZTWQ6PfUquSKV/WAsp31IA+dyq0QkXVajVQU4ffbW4BAFjm+CqNbhOmNiPmaXfuhnp17kKNebCSLqqdcB7Ql1Nm62BS6YROr5qvmEOUYQIZQagD4BMZ7qlz/K4JT/bW13sdrlsCfxVs0l+D7y566YuafwndNWKu1m/dohVfDFKTS4Q/AEA6HYvVoOZ3qvesPUoMCFb7CR/rhZRLJ3Tw8BnXtTuJf+FSKpWXazKQEZxBALwu4z11Tu3/tL9eXfB30hi5gDJq1+dhlQ3wbMyQxEPr9NXbfdWpdTOFhzfTg08N0P++3qST5nYAQAocuzS1czsNW37UdV0OUOmHRuutViVTvtEMKK+OA/roztAKqlirlQZOHa67U8h+AFKPUAfAfhLX6N03Z5mlO1KOSu3UKSxv0kq6ndaGyY/r9oq3qVXvNzU5aq5iYuZq5sTh6tWyhmp0mKatCeavAgAu4NDvE55U76/3ymG4bi4LNlH/wXer6CXvMv1V4q4Rmrt+q7as+EKDmlwi/AFINc4hAD6RkfLLuNgpmrEhwSzdCVRIi3tVLdCzkk4O7ZzSUc26fqm4ek9owMi3NWrY83q8RaiuDfRz/c/+o60fd9Ojb65XovkKAEAS5/5P1f/VBfo7qXRCZdr10cNWlE5cgfNorIa1rKe7R640W4Dsi1AHwOsyVn6ZoFWz5mnPuSelBRRTnYZVXdEu/Zz7PtHzQ3frvk/Xat3s8Xq1X0/1evE1vTf7Z/380cOqkNMd7E5p5fh3tIAnbwPABRK15t03NSu5dELtOoUpo7UTV3T8J73WqqUGfrNZucuGmI1A9kWoA2Avjj+0fOWu5B6zgBBVrZrTXEmPRG36cIbO9vlUo+8L/lc4zKlyD76tYa2SHsDiOLBaK7bRVwcA58XFasqMDUowiy8CQ1ro3oyVTlzZ6dUa9cB9ejnmsIzctdUk7BpzA5B9EeoA+ES6yy8Tt2rb7uRHX/sXKK3gwhm5lAWqSt+v9VnXG5VysdC1ioy4VTncnYvGGZ0+lfx3A0B2l7BqluYll06oWJ2Gqno1M92ZDRrXvoPGbo53fY74KUf1CEUW4XYW4CwA4HUZKr90nNDxk8nByi9vfuXPSDWnW84gXa6v79zb++UOUaUbM9IrCABZyx/LV2pXcumEQqpWvez1NEPit+j9ju300Q0vqnOIe1x1oG6OaKLgqz98D8j0CHUA7MU/t/LkSk5xRkKcru4wt2OKWbJWiUaASrZ8TPcWMZsBANq6bXfS1DJu/gVUOrjw1bm5TNyu6Z3aaHzR4Yp6/qxWrvxHRmBZNWpcKUNjqoGsglAHwCfSXX4ZGKzgEslfyxqHd2jbgSuXRDr2fqtBPSdoXbzZkEqJG8frjaj9Usn7NGLIPbrWbAcASCeOn0wOdX55lT/DpRMpcOzSZ11a6vWcLylqzD3KE/29lp42FFCsoZrcRvUE4EaoA+B1GSq/DKykRnVLnh//Zpxdpdmz9iTfVKQgcXeUujbvpbU3NdRNQWZjaji2akKvN7TCqKLuH07UQ8FcMgHgQrnz5Dpfoi4jQXFWl0449uqb7i31ypne+mJiW5UNPKWY75fouNNf19Rronp5zN8DsjnuUADYTJAaPdlZ1c+VYBquD/iRfTV9Z0pPpYzXrtkv6o763bX1gY80/anKrlenVpzWvPGEXl58jVpP+Epv3nmVSooAwMaCg0skP2TKOKwd2w5c9ks2D1dQ+3ZQT024UumEc7++73Ov+u17QjOnPKIQd6dcXKy+W3RETr/cqtMkTPmTfhPI9rhHAeATGZl8PPCWvpo0JEyF/ZOCnWNvlLo0vEM9Rkdp8eoNWrdikWZNGa4uTUJV/dF5unH4As0ZUDsNH/5OHZjTWx2G7VDD/32rqR1vYMwGAKSgUqO6KplcOqFVs2dpz+VLJxTVtbl6rb1JDS9TOuE8tFAL+9+nZ7e014wZXVUlV1J7worvtWi/Q345b1Vk5HXcyAImzgUAXpexycfdcql639mKmdxN4cF55CdD8X9G652erRVWo6qq1W6s+7tP0uYSHfTBslhNevjmNE2Ee2rlSLXtNFvlR8zRJ12ruP42AEBKgho9qc7Vz5VgGjoVM1J9p+9Mnkv0AvG7ZuvFO+qr+9YH9NH0p1T5EpnOeTRWr7R8Sk+tuEtTZvbWbecv4Ala890CuWdQCLw5Qo1L89hL4BxCHQCbyqsqHcdq0bZd2hg9UxNHDdfggYM1YvR7mv7VIm3YvV2x0waq5U1pG3ARv2miOrSZqPwvz9HM7lXFcA0AuIzAW9R30hCFFfZPCnaOvYrq0lB39BitqMWrtWHdCi2aNUXDuzRRaPVHNe/G4VowZ4BqX6p04vhPeq3VY/qhwSRNihqgugXMdrfEzfpu/u+uwBiocmFNdBMlFMB5hDoAPpGR8suL5CyiSmEPqEuv/hr0yiC98Mzjeui+MFUunPZvcBN3zFDn+1+To+9sAh0ApFKu6n01O2ayuoUHK48r2Rnxfyr6nZ5qHVZDVavVVuP7u2vS5hLq8MEyxU56WDdfqnQibp1Gt22r6eWH66Pnb9WtgSd1/Pjx8z9HN87SvF8TXXevRVS7bgX942o7eSpO56Y+B7IzQh0Ar8t4+aX1nH/NUo+Wg3Wix9cpBzqn88qD/wEgm8pbpaPGLtqmXRujNXPiKA0fPFCDR4zWe9O/0qINu7U9dpoGtrzpsl+WnVk4Vq8v2KNNH7RVhUIFVbDgxT/XVhuoFWcN1/V4n6a1LuZpKxzxlraS6gBCHQDfsKynzgLOI4vUv1U/7X08Sp+mGOj26ZMuXTRlP7EOAC4tp4pUCtMDXXqp/6BXNOiFZ/T4Q/cprHLh5CdkXlKitv12RCVCq6latZR+qqpsQfdtq59yFLxeFSpUcP2EqGbj+irP0DqAUAfA+zJVT93xnzSiVQd9U+FZPR16VKsWL9bi8z+LNPfrKRrWsble+LuB7irKJRMAro5A3dL7K/28Zo3WpPSzYpIeKOG6BvvlVL3BS7Vl61Zt3fqblg1vlIapaoCsizsUANnXmfUa266lBi3Zp98+6qpmYWEKu+gnUs3uf0wvffKX6re/V8W4YgKATzi2L1D074mu7FdZDcNKcQML/AvnBACf8H35ZbyiX2ipPnP3yXGF/5WAUvfq4WYFzTUAgHc59deCRdrgynQB19dTGI+9BP6DUAfA6zJH+WWQwsf8rgSn4QmYl/tJ3DNJTdMy0R0AwEJHtWjhz4o3/FWoTphqUm8J/AehDgAAAJnXqSVauPyUDL/cqhlWn+lmgBQQ6gD4hLsHDACAK8p3v6YdcMhwntJ3TxTj5hVIAecFAK/LjPPUAQAA2BWhDgAAAABsjFAHwCcovwQAALAGoQ6A11F+CQAAYB1CHQAAAADYmJ/hhRqokJAQbdu2zbM8Z84cNW/e3LMM72rfvr3CwsLUpUsXswXwri1btigqKkrvvvuuGjdurPLly5tb4E0Oh8OzDw4fPmy2AMhuTpw4oRYtWigoKEj169c3W4G0+eKLL9SsWTO9/vrrZgt8hVCXjRDq4EuHDh1SyZIllZiYaLbAl3LkyKGEhARzDUB2474X+/777801IGN++eUXVa9e3VyDL1B+CcArjhw5QqDLRJxOp7kEIDvav3+/uQRkHMeT79FTl43QUwdfmzhxoj777DOtWrVK5cqVU6FChcwt8KZcuXJpxYoVOnr0qNkCILtxX4cffPBBz5OIg4ODzVYgbTZt2qQGDRpo5syZCgwMNFvhC4S6bIRQh8zi9ttv1/DhwxUZGWm2wJt27Nih2rVr6+DBg2YLgOyoW7dunkDXr18/swVIm3bt2ikiIkJPPPGE2QJfofwSgE944fskAACAbIFQB8DrmKcOAADAOoQ6AAAAALAxQh0An6D8EgAAwBqEOgBeR/klAACAdQh1AAAAAGBjhDoAPkH5JQAAgDUIdQC8jvJLAAAA6xDqAAAAAMDGCHUAfILySwAAAGsQ6gB4HeWXAAAA1iHUAQAAAICNEeoA+ATllwAAANYg1AHwOsovAQAArEOoA+AT9NQBAABYg1AHwOvoqQMAALAOoQ4AAAAAbIxQB8AnKL8EAACwBqEOgNdRfgkAAGAdQh0AAAAA2BihDoBPUH4JAABgDUIdAK+j/BIAAMA6hDoAAAAAsDFCHQCfoPwSAADAGoQ6AF5H+SUAAIB1CHUAAAAAYGOEOgA+QfklAACANQh1ALyO8ksAAADrEOoA+AQ9dQAAANYg1AHwOnrqAAAArEOoAwAAAAAbI9QB8AnKLwEAAKxBqAPgdZRfAgAAWIdQBwAAAAA2RqgD4BOUXwIAAFiDUAfA6yi/BAAAsA6hDgAAAABsjFAHwCcovwQAALAGoQ6A11F+CQAAYB1CHQAAAADYGKEOgE9QfgkAAGANQh0Ar6P8EgAAwDqEOgAAAACwMUIdAJ+g/BIAAMAahDoAXkf5JQAAgHUIdQB8gp46AAAAaxDqAHgdPXUAAADWIdQBAAAAgI0R6gD4BOWXAAAA1iDUAfA6yi8BAACsQ6gDAAAAABsj1AHwCcovAQAArEGoA+B1lF8CAABYh1AHAAAAADZGqAPgE5RfAgAAWINQB8DrKL8EAACwDqEOAAAAAGyMUAfAJyi/BAAAsAahDoDXUX4JAABgHUIdAJ+gpw4AAMAahDoAXkdPHQAAgHUIdQAAAABgY4Q6AD5B+SUAAIA1CHUAvI7ySwAAAOsQ6gAAAADAxgh1AHyC8ksAAABrEOoAeB3llwAAANYh1AEAAACAjRHqAPgE5ZcAAADWINQB8DrKLwEAAKxDqAMAAAAAGyPUAfAJyi8BAACsQagD4HWUXwIAAFiHUAcAAAAANkaoA+ATlF8CAABYg1AHwOsovwQAALAOoQ6AT9BTBwAAYA1CHQCvo6cOAADAOoQ6AAAAALAxQh0An6D8EgAAwBqEOgBeR/klAACAdQh1AAAAAGBjhDoAPkH5JQAAgDUIdQC8jvJLAAAA6xDqAAAAAOAq+fPPP9W5c2e9/PLLOnjwoNlqLUIdAJ+g/BIAAGQHvXr10ocffqihQ4fqhhtu0KBBg3TixAlzqzUIdQC8jvJLAACQXRQvXtxckk6dOqUhQ4aofPnyGjVqlOLi4swtGUOoAwAAAICr5I033lDPnj2VM2dOs0U6cuSI+vTpowoVKuiDDz5QYmKiuSV9CHUAfILySwAAkB3kypVLb7/9trZt26ZOnTrJ3z85grnH2z3++OOqUqWKPv/8czmdTnNL2hDqAHgd5ZcAACC7CQ4O9vTK/frrr2rVqpXZmuS3337TAw88oFq1aumHH35I85ffhDoAPkFPHQAAyI4qVaqkL774QitXrlTjxo3N1iSrV6/WnXfeqcjISK1YscJsvTJCHQCvo6cOAABkdzVr1tT8+fO1YMECTw/dhaKjo1W7dm3df//92rhxo9l6aYQ6AAAAAPARd6/cTz/9pC+//NLTi3ehr7/+WqGhoXr00Ue1a9cus/W/CHUAfILySwAAgCTuKiZ3r9yGDRs0efJkz/i7c9z3TFOnTlVISIieffbZFCcwJ9QB8DrKLwEAAP4rICDA0yu3detW/e9//1ORIkXMLdLZs2c1ZswYzxx3AwcO1PHjx80trnsrV/K76l+Xu1Ol+xGebu+//77CwsI8y/Au9/wY7trcBx980GwBfMP9LVOdOnU4Fn1kz549at26tWeANoDsa9CgQSpZsqSefPJJswVIGz7Prz73ZOXunjt3hjp9+rTZmqRAgQLq1q2bBgwY4J1QV6xYsRS7CQEAAAAA6ZcvXz7vlF+eOXPGXAIAAAAAWMXdm+eVUNehQwdzCQAAAABgFXcZplfKL92OHDmiuLg4cw1Advb666+rRo0aioiIMFsAAN4WGxurQoUKqUqVKmYLgMwmPj5e06ZN0+jRo3Xs2DGzNYn7/O3Tp4/69u3rvVAHAAAAALgyp9OpmTNneh6CsnPnTrM1Se7cudW7d289//zzuuaaazxthDoAAAAAyCQWLlyofv36afXq1WZLEn9/f3Xu3FmDBw/2PLn2QoQ6AAAAAPCx9evXe8Lc3LlzzZZk99xzj0aMGKHKlSubLRdj8nEAAAAA8BH3/LGPPPKIqlWr9p9A555j2j3+9ZtvvrlkoHOjpw4AAAAAvOzo0aOe3rcxY8Z4HohyoQoVKni2tWzZUn5+fmbrpRHqAAAAAMBL3DMCvPPOOxo+fLgn2F2oaNGinjFzjz/+uHLkyGG2XhmhDgAAAACuMvcTLWfMmKGXXnrJU3J5obx58+q5557zTFGQP39+szX1CHUAAAAAcBX98MMPnikI1q1bZ7YkCQgIUJcuXTRw4EAVL17cbE07Qh0AAAAAXCWTJ09Wp06dzLVk7vFy7hLMihUrmi3px9MvAQAAAOAqiYqKMpeS1K9fXz/++KOn3YpA50aoAwAAAICrpGvXrrruuut066236uuvv9aSJUtUp04dc6s1KL8EAAAAABujpw4AAAAAbIxQBwAAAAA2RqgDAAAAABsj1AEAAACAjRHqAAAAAMDGCHUAAAAAYGOEOgAAAACwMUIdAAAAANgYoQ4AAAAAbIxQBwAAAAA2RqgDAAAAABsj1AEAAACAjRHqAAAAAMDGCHVZUPyWKI2euVGJ5jpwtXCsZTPxWxQ1eqY2ssOBLCheW6JGayYnePbA9TzLIdRlMc6/vlK3eztq/KrjcpptwNXAsZbNOP/SV93uVcfxq3ScHQ5kMU799VU33dtxvFZxgmd9XM+zJEJdFuI8slgDW3fS5O2FVD/iVuU02wGrcaxlM84jWjywtTpN3q5C9SN0KzscyEKcOrJ4oFp3mqztheorghM8a+N6nmUR6rIIxx/fqOcd92jE8mNS/jqKrJvL3AJYi2Mtm3H8oW963qF7RizXMeVXnci6Yo8DWYVDf3zTU3fcM0JJl/RIcUnPwrieZ2mEOttz6K+Fr+ru+m31zi8n5JSfgmpGqNE15mbAMhxr2Y3jr4V69e76avvOLzrhlPyCaiqCHQ5kDY6/tPDVu1W/7Tv6JekEV82IRuIMz5p8eT1n/L13EOpsy6G/N87WqC4NVaPZIH2/J16Gpz1Apa8P0sbohVq4cKEWxW7ytALpx7GW3Tj+3qjZo7qoYY1mGvT9HsUn7XAFlL5eQRujPft74aJYbTrCYAzAdhx/a+PsUerSsIaaDfpee5JPcF0ftFHR7vN74SLFbjqS1A5b8/X1nPH33uKUn+FirsE2jmrOMw3UftwmnXBefvcFVu6nsxtHmmtAWnGsZTdH5zyjBu3HadMJpxneLyGwsvotW6ORtRiQAdjG0Tl6pkF7jdt0Qpe/pAeqcr9l2jiylrkOezqqKgWu89n13DP+/u77NGJlXj0263e935xiz6snkVBnT/Ha9+sv2uF5ZJFDW997TF2m7vB0awcEt9f4j55W5QDPL8q/QHnVqVIiaQVIM4617CZ+36/6ZUfSN6qOre/psS5TtSNph6v9+I/0dPIOV/lbq6hEUNIqABuI36dff9mR9MRDx1a991gXTU06wRXcfrw+erqya8nNXwXK36oqnOA2F6/ly372yfXcPf6+130dNe6XE1LB1pq+83O1K2huxFVBqLM7526NjqyoXjHukjh/XffQZ9o5vZXymZsBy3CsZTNO7R4dqYq9YjzlOv7XPaTPdk5XK3Y4kCU4d49WZMVeikk6wfXQZzs1nRM8i/Lm9dw9/n64Hu80THM9wzX8lLvJOP0+t6tKMujrquKf1+6OLdHiNQlJ3ep+uVUrrIHyeDYAFuNYy2aOacniNUpI2uHKXStMDdjhQJZxbMlirUk6wV2X9FoK4wTPwrxxPWf8va8R6mzuzI/R+umkeVHOUU1h4YXZqbgqONaymTM/Kvqnk2aIz6FqYeEqzA4Hsogz+jH6JyVd0v2Uo1qYwjnBs66rfj13j7+/ReWq3qs+7/2ofWeT7hWSJGrr5M66o3FjNXb93PnUNLMdVuMMtrUErYlepkPuYmmXwJBGCi9j1kcDluJYy24S1kRrWfIOV6PwMuZYGwC2l7BG0csOecZauR+KEtIoXFzSs66rfz3Po1u7vKfvlsRq6dLF+vCR8q6jKol7/P2kxUtd7Uk/S2Y+a26B1Qh1dubYrpjYnea8HwEqXi9MoefOIsBKHGvZjEPbY2K1M2mHK6B4PYWxw4Esw7E9RrHJJ7jqhYWevwlHVuON63mQSlSpo3r16qlenTI6sXuv629181ehBi3VrqGr3b3N9cMD1a4eQp2NOQ/GaMmv5lnqX0B1I2q7TqvUOq3fvxujfk88oGbhYbqjTQ+99f12xZlbgQtl7FhzSfhb21fO06fjh6tflwfVcdRKcwMyJedBxSz51Qzx/ipQN0K1U7HDEw+t01dv91Wn1s0UHt5MDz41QP/7epNOmtsBZAZOHYxZouRLel1FpOYE93DoyNrPNLx7e90T0UiNGt+vjs8M08dr/jZ7/ZDppPN6nm7pGX/PPYIlCHU2dnJJjFaZs0j65aqp8IZ5PctX4tg7Ry9GVlb9/qtU9J7+GvfhWPWtd1iT2tTV3aPWEuzwH+k91px75+rNZx5TqxZ3KMx1k9/u6QF6/f1Z+iuolPkbyJROLlHMKnOQu18u1QxvqMvv8dPaMPlx3V7xNrXq/aYmR81VTMxczZw4XL1a1lCNDtO0NcH8VQA+dlJLYlaZk1D7KVfNcKXqku48oEWDWyjskQlar1K6oWwu5fpjoWaMfUkd6tbWox/vMntnkKmk+XqeMakef+/cq7lvPsM9gpXcUxrAjuKMH54sbQS4dqHrtDFy1B5hbEk0N11G3K/vGW1uyGXkDu1hzD3gMFvdThsLni5nBOauZQxdf9ZsA9zSd6xd7Kyx4ZXbjBzu98hRyxi2Oc1vAC+K++FJo3SA5x7A8MtR2xhx2R2eaOyY3NIoFVTIqNziKeOlkW8bo4Y9bzzeItS4NtDP8x7yy2fUGbbOdRQA8Lm4H4wnSweY52YOo/aILa6z+ErOGpvGdDQeenuF8feFtw4nfzIG1spr+Lney7/4Q8YXf5vtyDTSdj3PqHhjae8QI9B9bLl+clR50ViVqgs/9whWoKfOrhLXK3rZfvNbsQDd2DBc5a4w6tV5ZL76tu2hL/6sqGcnjNCdRS/c/XlU/64IFY1frffGL1a82Qqk51j7L4f27j3gKc8JDIlQ4/LWDtGGlRK1PnqZ9ptfuQfc2FDhl9nhzn2f6Pmhu3Xfp2u1bvZ4vdqvp3q9+Jrem/2zfv7oYVXI6b7dO6WV49/RAsoAAJ9LXB+tZcknuBqGl7vyQzOcR3W6+nMa37OWCl1465Dvdj37dKTyuk5z56FYLVjN3UNmk5breYale/w99whWINTZlGP3Yi3ZahbEBxRTvfBblDNpLWXO/fq8x2N6d1OCCrfoq161/9v5HlCylIoGuE6s6Hn6hVIpmNJ8rKUkYY0WLnEHwwCVbBipW9L8BvAax24tXrL1/IdysXrhl9lfidr04Qyd7fOpRt8X/K8HLeRUuQff1rBWRT0fNI4Dq7Vim3kcAfARh3YvXqLkS3o9hafmguxfRDXqhyq/uXqhoFxBZij0k58r3CFzSf31POPSPf6eewRLEOpsyakjMYu1zpwHxD9/HUXUzuVZvpRTi4dr4Bd/yRFQXu27t9JFnXTnmBdjx+6N2siTDeCR9mMtJYnb5mvRdteF3v9aNWycxoeswKucR2K0eN1ZT+2Ma4erjutD+dJ7PFBV+n6tz7reaN7U/du1ioy4VTnc1xbjjE6f4lEKgE85jyhm8TolXdL9lb9OhNJxSb/AcS36YblOud4voESkmt3G1T1zcabhep5x6R1/zz2CNQh1tnRGS6NX6IznvPFTUI1wNbrGs8HllPbtO+7pwj7P8ZsmDv5Q285KOW55WE/UT/mUdp44odOu9zQSD2jffvObFmRzaTzWUuTUn/MXeZ605pe3jiIb5TPbkRmdWRqtFUk7XH5BNRSevMN1at8+Hf/3Ds8ZdNme23Nf3PvlDlGlG/n6FfCpM0sVveJM0k2+X5BqhDdS8iV9n/b95wS/jPjt2j6jm3p9tFf+pRpr8Iw3dFdBcxsyiTNpu55nSLxWRi/XCc97+imwapjCiqQmZnCPYBVCnR3FLdXcxeceHxyoKo3CVMyzJx3aNf0pPTxypY57tiVJXD9dHy13X8QDdfNd9+qmS9Q3Jx7Yr0PuumsjTmdOW3qmw67SeKylyHlYCxf+rATDHQojFVHIbEcmFKelcxfrb/P0D6zSSGFJO1yOXdP11MMjtfKKO/xCxxSzZK0SjQCVbPmY7i1iNgPwibilc7U4+QRXo7BiSTeCjl2a/tTDGpmqEzxRB1d+qO6RjdSo1zpV6TVZP66bp5caXstNZWbj+gxP/fXcqbhDW/XT959o/IgX9OSDzdTwkQ+02xyPl7D7O43ofJdur3yTBs3dZ94XXCBd4+9d78I9gmU4/2woYV20lp4b9RpYTg0jkkqfTi4fqk4TS+rlIU2UfE7Ea/m0mdrorrUIDFHTu27+17iXcxz6c/tuT0+d+5G3efJyaCCtx9olnIzR/B+TvlSoEh6pUhxamVfCOkUvPfehHKhyDSN0Y9IO19BOE1Xy5SFqkoYP3MSN4/VG1H6p5H0aMeQeXWu2A/CFBK2LXnr+oRmB5RoqIukE1/KhnTSx5MsacokTPPHYbq1d9IUmDn1GbereoPJ1ntCMs+3Ubuo8Rb32iGoU5sKeGbk/w1N9PXds03eTJur9twfquQGvadLMhTpVtoZKBTh1cMFANW8xQAv/Oqg9v2/ViOfHac2/CrrSN/7+JPcIFuKfznYc+mPJMv1uXpT9coTo5sqBOr56jDo8GatmY4eoUYGkbR6J6/Td/KQnEQWWbazm1S71GKKz2rx5u+fk9wssqhJFU/W4ImRpaTzWLiHux/la6q7xCLxB4U0qXGLsFTIDxx9LtCx5hyvk5soKPL5aYzo8qdhmYzUkNTv8HMdWTej1hlYYVdT9w4l6KJiPG8CnHH9oybLfzZt8P+UIuVmVA49r9ZgOejK2mcYOaaSUz3DXZ8Hy2fpu6Vpt2vqbNm/dpzNOp46tfEtv3VtbrSdu4onZmVLSZ7hHaq7nARXVcsBbmvjuE/LcKgaG6M67Kil+zdvqPs6p5+b+rAWzJ6jzTYEyEs8q8aKuunSOv4/7kXsEK5lTG8A2/jG+7FDYPReF+8zxzDFTJKSycX2x24w+PxwwLpw+xs3x5xgjPMg9V5S/Ubj9F8ZJs/0/zq4xXr4lh+c9A296zvgx3mxHNpa2Yy1l8UZsr6Q5awKu72LM/cdsRqb0z5cdjML+5v52z0lYJMSofH0x47Y+PxgXTWt5Rf8Yv4xoaBTMWcZ4YOrvzE8HZAb/fGl0KOxvnt/uOcuKGCGVrzeK3dbH+CENJ3ji4ZXGO63KGTn8zPfJH2GM/p15xTKfpM/wtF7Pj85oZRR0fQ4EhvQyFu/83Ojasp8x/7D5gtNfGQ8X8Teuuf8j42hSi+mkEfVQEfN+wc/I3Xicsff833HS+OuvYyneM8TH9uIewUJ8dWo7OXRT9VDlP7fnjESdOltWnafO0mtNkh4dfqGzmzdpe6L7HAtUaK2aymO2/5vjj2gt+c3dn+evInUaqirPM0Aaj7UUJW7W/Bh3T7G/CjZorLpX87FbyLAcN1VXaPIOV+KpsyrbeapmvdYk5SfmpsipA3N6q8OwHWr4v281teMNlyj5BuBVOW5S9dD856/dRuIpnS3bWVNnvaYmqT/BFVC4prpN/Vh9qwUpyM/1PqeWafYPh/47xgo+lvQZniS11/MzWrrwR51wBuj68FBtHBSliq8OUWOzvDZx0yqtPea8+AE7bmkaf39u7N50vTJohh6dtM11j+CXdI/gv1vfjeisu26vrJtq3Jvy2D1ckp872ZnLsAvnMf06+2PNWn9ShW6spcgW4QpJafIYl5PT7lWxR2fpH/+y6jZ/i94JT+lBsU7tHd9UId3m64xfUT302VZNb5WGMitkXWk41lLi2P6mwio/r6Vn86rF+9v1TadUhkH4iFPHfp2tj2et18lCN6pWZAuFp2WHu5xaOVwt7h6v/C/P0czuVS/5RRIA73Me+1WzP56l9ScL6cZakWoRHpLi3HNX5tSeMY31aL8YRce5buJf/FFrhtXgC5zMxvUZ/u7Isam/nifEqufNERq9s4juaF1PxSJHavITN5glkQ7tHBWhSs8t0csbEzWg0rlCSYd+H91UdXsv0CF3AvMvrHqdu6tpcKDOHt+q2J+Ka9C3rycP13D8pi9HTtJ3MVGatmC3Et1fDBj5dNfbH6r6t0P0ra5X4MaFWr3/rAJDB2j5L0N1GwdW6nj665BFOYx94xobOd1f0eQMM/63+xL97Y4Dxgct8hvu8yqgzFPGD6fNdiBDXMffxKZGXj8ZfkGNjFE7L1PvgSwhbuME497gYKPF2HUGlxEga4uP6WH0KB9gSDmM2wavp8w6Czi7dqBRPYfrMzsgv1HqnrHGbxdV1R40Przbfa8YaPx04RAdx15jaEhyWe+FP/75Khqvr0m5pjLhx5ZGQdfvuO89lfNW4+7m9xoDvv/TSHQdST8PCDVyuNoDKz1/8d+Fy+JL8yzNX7lyBXnmifLLXUwlrkt5dzt2fqyPok+5zqw8qvVUd4Xz1ToscUKL5v+kf1yX9sAq4Wp8PZebrCxxxwx1vv81OfrOpocOyA5yBikop+sOw7+AKlUtTy+d7Tn0x8JobfKMxCmt9i88oZALn1pyeqmifzotI6Ckql00RCdBfkVyn5+T1H3vma9IcRXMX1p3DPpEfaqlPO7ir+krPCWZ7vQXUOAfFXnmAw1pWkoBrvf7Y4/7Kcx+ynNTqCoyHCjVuMvK4nKXLKnrXCelX67cyp3i3o7T8ncnaOkZKceNj+qVrpea8gBIozOxWrDshJyuI6pco8aqyIGVZTn/mqUeLQfrRI+vUw50TifjIoAsJnH/Pu076FRAseZqFZHXbIVteeaLW+OZLy53gyf19O0XD9eJX7VIS/92yv/ahrpoiysA3t+ypq45f49pyJHvVj37+U/69rnqlwgah/X+/H2eQOe6Q1Wem1/U6DsLJ/1u4iatWntMzn9Pjo8rcO0bcwlZVI5b6+hWd/3b6eM6ftZsvIBzz8d6c9o2OQJvVOf/vapIhtLBIvEr52ux6wNfAUXVIPK2VMxXAztyHlmk/q36ae/jUfo0xUC3T5906aIp+4l1QNZxRrHzYhV7Iq/q9OyrFtw72N/pxVr40xkZfvnUsG1rXTwLTaI2Ry/Vnw4/5a0T6Vo/qc1rf9Npz7YAVer5lZZ+OU7DhozUux8v1Np1czT4zpKXnp7g5MeavdP8TPC7Rk17t1a+pDXP1DpL3fPdBYYqonFJgkqq+fNvldX5X3ePOjQvKr9/ftbipUmn33mO3fqo10v69u8CaviKK9w1v5YDAhZJ1IYFMfrD4ToGr6mvxjz2Mms6/pNGtOqgbyo8q6dDj2rV4sVafP5nkeZ+PUXDOjbXC3830F1peLoeAB+L+1XT+3XSY92H6tP1x/7T0x63ZoyGfZaoxKava1LPKlT4ZAFxyxZ45ovzy1tf999d/OL7Qec+xcZuVqJfDlWt30C7P+mrYfNPJYc2/4Kqcu/TevHlfura7soPVIub/bk8D1x38cvfRC0bJN8j/B0TozUJhgIrRKjxDZeMhUiJObYOWVjibxONFsUDjUJhw41V5yaqO73NmPlkVSNfzlJG05HLjL95hgUs5Dj4rfH4jYGeAdA5ag0zNjOFUdZzep0xplkJI8Ccq+qSP/5FjfafXzyjEYDMLX5pbyMkMOkc9stdzmj64kxj/ZGzhnH2gLHqo95GWIWqxsPvrTfWnzJfAJuLN358rqIR6J5jLnKsseff94Rx3xtPlAow5HeNccfIWcb9XT4xdqX3c92xz3j/9lzmZ0QuI/Cie4RTxpcPu+e7CzCCu8434sxWpA5TGmQTx9e8pz5dX9GsQ8GqGVpQf2/eqJMVHtQLQ19Q+2qF6KFDxjl2a967H2je2g1aNm+eVu39x3NH4JejlOo+2FaRIWVVu/3Talaeb97sL17Rz9ysO9/ZrrNX+AQJKP2Evt08SU0ZcgPYR9w6vduxnQZ8tUXH3HPduvjlyK8iZUMV0foxPdmlvcLK8jikLMOxUa/Wrq6Bq/1U77WNWtz3xotLJxN/1fD6NfXSinj5FaisXw/8qkopzZB1SQ7tnveuPpi3VhuWfqc5q/YraUSQv+u4KpF8j9Cqsr676069s/tadfh8hz5qea4oE6lBqMtWEnVs92/adSKPgkPK6do0nZAAACA7iT+yQ1t3HFJcrutUumwZFc9PoWV25TiyWT+uP6rrbq6hSkUzMEr+5GdqV7adPj2aV00nbNH3XUqaG1x3qWsHqWatIVqX6x59uP0bPVrEPXbvLwVXqyi+F7wyOmiylUAVLHOzqoUS6AAAwOUFFS6v0Jq3q2boDQS6bC6gcCU1CK+bsUDn8u+xe8mc2hcbq82JfspRtb4aXOv479g9XBahDgAAAMBVlqA1C5dov8NPuW5vrmbFLowhZ7Vxw1a5q31z5XVq04fd1SsmTMN63yYetZY6hDoAAAAAV5djmxbE7PA8RfPWO5uq5EUpJEDXl71eOfwMnVwwQv2X3a5hYx5UGbrpUo0xdQAAAAB8y3FEm39cr6PX3awalYoyv20aEeoAAAAAwMYovwQAAAAAGyPUAQAAAICNEeoAAAAAwMYIdQAAAABgY4Q6AAAAALAxQh0AAAAA2BihDgAAAABsS/o/fvp8PTh2ScoAAAAASUVORK5CYII=;" vertex="1" parent="6">
                    <mxGeometry x="7.5" y="35.89" width="255" height="128.22" as="geometry"/>
                </mxCell>
                <mxCell id="10" value="konstante Zustandswerte" style="text;html=1;align=center;verticalAlign=middle;resizable=0;points=[];autosize=1;strokeColor=none;fillColor=none;fontFamily=Tahoma;fontSize=26;" vertex="1" parent="1">
                    <mxGeometry x="335" y="240" width="310" height="40" as="geometry"/>
                </mxCell>
            </root>
        </mxGraphModel>
    </diagram>
</mxfile>